<?xml version="1.0" encoding="UTF-8"?>
<!DOCTYPE svg PUBLIC "-//W3C//DTD SVG 1.1//EN" "http://www.w3.org/Graphics/SVG/1.1/DTD/svg11.dtd">
<svg xmlns="http://www.w3.org/2000/svg" version="1.1" width="1000px" height="1000px" style="shape-rendering:geometricPrecision; text-rendering:geometricPrecision; image-rendering:optimizeQuality; fill-rule:evenodd; clip-rule:evenodd" xmlns:xlink="http://www.w3.org/1999/xlink">
<g><path style="opacity:0.993" fill="#989e96" d="M 45.5,55.5 C 346.167,55.5 646.833,55.5 947.5,55.5C 947.5,118.5 947.5,181.5 947.5,244.5C 646.833,244.5 346.167,244.5 45.5,244.5C 45.5,181.5 45.5,118.5 45.5,55.5 Z"/></g>
<g><path style="opacity:0.997" fill="#989d96" d="M 92.5,309.5 C 292.171,335.778 492.504,342.611 693.5,330C 759.734,325.343 825.734,318.51 891.5,309.5C 891.667,505.5 891.5,701.5 891,897.5C 831.493,857.08 772.16,816.414 713,775.5C 636,847.5 559,919.5 482,991.5C 403.988,909.988 325.821,828.655 247.5,747.5C 195.848,797.318 144.348,847.318 93,897.5C 92.5,701.5 92.3333,505.5 92.5,309.5 Z M 492.5,555.5 C 493.496,555.414 494.329,555.748 495,556.5C 520.905,593.402 546.405,630.569 571.5,668C 545.863,705.449 519.863,742.616 493.5,779.5C 467.137,742.616 441.137,705.449 415.5,668C 440.982,630.355 466.649,592.855 492.5,555.5 Z"/></g>
</svg>
