<?xml version="1.0" encoding="UTF-8"?>
<!DOCTYPE svg PUBLIC "-//W3C//DTD SVG 1.1//EN" "http://www.w3.org/Graphics/SVG/1.1/DTD/svg11.dtd">
<svg xmlns="http://www.w3.org/2000/svg" version="1.1" width="1000px" height="1000px" style="shape-rendering:geometricPrecision; text-rendering:geometricPrecision; image-rendering:optimizeQuality; fill-rule:evenodd; clip-rule:evenodd" xmlns:xlink="http://www.w3.org/1999/xlink">
<g><path style="opacity:0.998" fill="#7c5a2d" d="M 503.5,27.5 C 622.981,39.2515 730.315,81.0848 825.5,153C 851.281,173.947 874.948,197.114 896.5,222.5C 767.888,261.529 639.055,299.862 510,337.5C 380.397,299.557 250.897,261.224 121.5,222.5C 120.068,222.267 119.568,221.6 120,220.5C 190.524,143.065 276.024,88.5652 376.5,57C 418.265,44.1207 460.598,34.2874 503.5,27.5 Z"/></g>
<g><path style="opacity:0.997" fill="#7c5a2d" d="M 249.5,379.5 C 248.827,398.095 248.494,417.428 248.5,437.5C 248.833,457.167 249.167,476.833 249.5,496.5C 250.107,496.376 250.44,496.043 250.5,495.5C 261.421,498.461 271.421,503.294 280.5,510C 301.457,527.949 318.29,549.116 331,573.5C 342.376,595.916 352.376,618.916 361,642.5C 383.981,726.384 398.314,811.717 404,898.5C 405.416,924.153 405.75,949.819 405,975.5C 320.667,883.167 236.333,790.833 152,698.5C 139.695,542.894 127.861,387.227 116.5,231.5C 247.93,282.464 379.096,334.13 510,386.5C 640.698,334.544 771.531,282.877 902.5,231.5C 902.833,233.5 903.167,235.5 903.5,237.5C 892.237,390.854 880.737,544.188 869,697.5C 783.027,793.973 696.527,889.973 609.5,985.5C 610.804,869.915 627.137,756.415 658.5,645C 671.587,603.654 691.087,565.821 717,531.5C 731.131,514.528 748.631,502.528 769.5,495.5C 770.833,456.833 770.833,418.167 769.5,379.5C 706.419,405.638 643.419,431.972 580.5,458.5C 579.667,523.831 579.167,589.164 579,654.5C 556.276,672.896 533.276,690.896 510,708.5C 487.169,690.746 464.502,672.746 442,654.5C 441.5,589.168 441.333,523.834 441.5,458.5C 377.5,432.167 313.5,405.833 249.5,379.5 Z"/></g>
<g><path style="opacity:0.499" fill="#7b5a2d" d="M 249.5,379.5 C 249.168,418.337 249.501,457.004 250.5,495.5C 250.44,496.043 250.107,496.376 249.5,496.5C 249.167,476.833 248.833,457.167 248.5,437.5C 248.494,417.428 248.827,398.095 249.5,379.5 Z"/></g>
</svg>
