<?xml version="1.0" encoding="UTF-8"?>
<svg version="1.1" xmlns="http://www.w3.org/2000/svg" width="1000" height="1000">
<path d="M0 0 C1.63313141 -0.00108765 1.63313141 -0.00108765 3.29925537 -0.00219727 C20.11436432 -0.0009627 36.7651441 0.45836952 53.5 2.1875 C62.33351799 22.00535626 70.81483429 41.96800104 79.27832031 61.94580078 C81.08796195 66.21661442 82.90016764 70.48633027 84.71481323 74.75502014 C85.42069537 76.41604796 86.12587508 78.07737446 86.83035278 79.73899841 C88.58408052 83.87266937 90.34990346 88.00033977 92.14111328 92.11791992 C95.48019075 99.82851581 98.67793575 107.53339778 101.48205566 115.45689392 C107.79505563 136.31238283 107.79505563 136.31238283 121.8125 151.80859375 C126.96958678 154.17125559 132.13730783 155.66276525 137.72045898 156.62548828 C140.45922126 157.17925471 142.67571534 158.07631785 145.22265625 159.19921875 C147.84356658 160.10496153 148.97072796 160.38275163 151.59326172 159.4152832 C153.86122719 157.98144799 155.87670963 156.40571743 157.9375 154.6875 C159.51761831 153.45884942 161.09836537 152.23100709 162.6796875 151.00390625 C163.47858398 150.36727051 164.27748047 149.73063477 165.10058594 149.07470703 C168.83507758 146.13742372 172.6971359 143.38627502 176.5625 140.625 C178.06402092 139.54066755 179.56532371 138.45603298 181.06640625 137.37109375 C186.05520447 133.77990151 191.08047954 130.24137622 196.10791016 126.70458984 C203.52946453 121.47642951 210.88265054 116.154977 218.23388672 110.82861328 C222.72723416 107.57454287 227.22573302 104.32758678 231.72558594 101.08251953 C235.62043515 98.27260315 239.50840291 95.45379654 243.38671875 92.62109375 C244.59231445 91.74324219 244.59231445 91.74324219 245.82226562 90.84765625 C247.35041969 89.73466543 248.87660637 88.61896602 250.40039062 87.5 C254.63417193 84.42159842 258.90560814 81.69845859 263.5 79.1875 C280.10263393 90.88650742 295.95528416 103.20587403 310.97412109 116.89697266 C312.52639907 118.30461542 314.08629757 119.70397498 315.65869141 121.08911133 C322.64670322 127.26394792 329.25205307 133.78651092 335.83276367 140.38989258 C337.69142108 142.25393244 339.55539614 144.11253512 341.41992188 145.97070312 C347.32499285 151.8721306 353.13502176 157.78293474 358.5 164.1875 C359.41195791 165.24418271 360.32468796 166.30019965 361.23828125 167.35546875 C367.57130457 174.78403784 373.67091241 182.35551201 379.5 190.1875 C379.99226074 190.8484668 380.48452148 191.50943359 380.99169922 192.19042969 C387.50253396 200.97569439 393.79306578 209.91246359 399.875 219 C400.45290283 219.84183838 401.03080566 220.68367676 401.6262207 221.55102539 C402.14917725 222.34500732 402.67213379 223.13898926 403.2109375 223.95703125 C403.67806152 224.65417236 404.14518555 225.35131348 404.62646484 226.06958008 C405.77608195 228.85687142 405.4194234 230.35064415 404.5 233.1875 C402.88430644 235.20134662 401.30263268 236.98574377 399.5 238.8125 C398.48452711 239.87787651 397.47154243 240.94562968 396.4609375 242.015625 C395.9565918 242.54865234 395.45224609 243.08167969 394.93261719 243.63085938 C392.88570826 245.85497173 391.00677541 248.1980387 389.125 250.5625 C385.07398276 255.60086194 380.72776443 260.2905476 376.29956055 264.9934082 C372.25745807 269.30959157 368.50411892 273.79244499 364.80859375 278.41015625 C362.14720542 281.61192799 359.34537754 284.64984918 356.5 287.6875 C352.85111551 291.58326281 349.34301562 295.52084284 346 299.6875 C341.66703273 305.08401378 337.01038556 310.12254995 332.29296875 315.1796875 C328.9414539 318.77452076 325.71111691 322.46730359 322.5 326.1875 C321.18841779 327.68830257 319.8759259 329.18831067 318.5625 330.6875 C317.54161332 331.85411999 316.52077071 333.02077854 315.5 334.1875 C315.71205078 334.74735596 315.92410156 335.30721191 316.14257812 335.8840332 C317.10014633 338.42079974 318.05014699 340.96033511 319 343.5 C319.33386719 344.38107422 319.66773438 345.26214844 320.01171875 346.16992188 C320.48544922 347.44125977 320.48544922 347.44125977 320.96875 348.73828125 C321.26201172 349.51856689 321.55527344 350.29885254 321.85742188 351.1027832 C322.5 353.1875 322.5 353.1875 322.5 356.1875 C323.1518159 356.17596925 323.8036318 356.1644385 324.4751997 356.15255833 C331.62837057 356.0820847 338.64207566 356.5152746 345.76098633 357.18139648 C346.9331369 357.28707947 348.10528748 357.39276245 349.31295776 357.50164795 C353.15310464 357.84914318 356.99255959 358.20372209 360.83203125 358.55859375 C363.51470628 358.80369598 366.1975045 359.04743822 368.8802948 359.29127502 C374.4861825 359.8015746 380.09171237 360.3156612 385.69702148 360.83227539 C392.16611747 361.42847482 398.63565807 362.0196343 405.10548002 362.60790008 C412.0185277 363.2365022 418.93125793 363.8685409 425.843889 364.50170636 C427.82692841 364.68312691 429.8100296 364.86387173 431.79313087 365.04461479 C435.49096359 365.38219501 439.18850922 365.72275864 442.88598633 366.06420898 C444.52486565 366.21310326 444.52486565 366.21310326 446.19685364 366.36500549 C451.00246879 366.81172424 455.75241404 367.29023789 460.5 368.1875 C463.62540907 383.85891844 466.05446443 399.48878946 467.75 415.375 C467.87381042 416.51912857 467.87381042 416.51912857 468.00012207 417.68637085 C469.84709594 434.91791348 470.7119742 452.04538388 470.6875 469.375 C470.68656342 470.24355621 470.68562683 471.11211243 470.68466187 472.00698853 C470.61137541 503.66204399 467.66239024 535.02978433 461.90234375 566.1640625 C461.71521568 567.18178238 461.71521568 567.18178238 461.52430725 568.22006226 C460.6255845 572.936331 460.6255845 572.936331 459.5 575.1875 C458.87015512 575.2020394 458.24031025 575.21657881 457.59137917 575.2315588 C442.23259609 575.58636662 426.87391894 575.94542061 411.51534462 576.30914211 C404.08791315 576.48493705 396.66045363 576.65931946 389.23291016 576.83032227 C382.75552786 576.97945336 376.27821546 577.13129009 369.80097139 577.28631264 C366.37455433 577.36822563 362.94811823 577.44882655 359.521595 577.52618217 C355.68699199 577.61343249 351.85253076 577.70546415 348.01806641 577.79858398 C346.89452759 577.82304092 345.77098877 577.84749786 344.61340332 577.87269592 C338.19982511 578.0341856 331.87257416 578.4396113 325.5 579.1875 C324.29484839 582.24344198 323.1122467 585.3072329 321.9375 588.375 C321.59525391 589.23931641 321.25300781 590.10363281 320.90039062 590.99414062 C320.58134766 591.83525391 320.26230469 592.67636719 319.93359375 593.54296875 C319.63509521 594.31278076 319.33659668 595.08259277 319.02905273 595.87573242 C318.05809892 600.11844661 319.21814277 602.72586664 321.44140625 606.3671875 C322.30679239 607.60481195 323.18118878 608.83616482 324.0625 610.0625 C325.0638095 611.48697395 326.0651111 612.91145346 327.06640625 614.3359375 C327.61441895 615.10905273 328.16243164 615.88216797 328.72705078 616.67871094 C332.01303871 621.32850603 335.25159662 626.01141277 338.5 630.6875 C339.88277205 632.67320525 341.26558394 634.65888276 342.6484375 636.64453125 C345.82433657 641.2097892 348.9815957 645.78732886 352.125 650.375 C356.21225845 656.3391868 360.34808008 662.26816344 364.5 668.1875 C369.08595677 674.72563707 373.64915005 681.27762172 378.15380859 687.87207031 C380.97107486 691.98889757 383.82651292 696.07671562 386.703125 700.15234375 C387.43354004 701.19092529 388.16395508 702.22950684 388.91650391 703.29956055 C390.36699118 705.36048393 391.82225319 707.41805668 393.28271484 709.47192383 C394.27585693 710.88574341 394.27585693 710.88574341 395.2890625 712.328125 C396.18165771 713.58931152 396.18165771 713.58931152 397.09228516 714.87597656 C398.4291576 717.07117398 399.18741037 718.64741484 399.5 721.1875 C398.33984375 723.53515625 398.33984375 723.53515625 396.4375 726.25 C395.69757812 727.30832031 394.95765625 728.36664062 394.1953125 729.45703125 C393.29846621 730.70166896 392.39989765 731.9450667 391.5 733.1875 C390.98920898 733.8995459 390.47841797 734.6115918 389.95214844 735.34521484 C381.85025393 746.61438821 373.38276806 757.52532214 364.5 768.1875 C363.7869873 769.04915771 363.7869873 769.04915771 363.05957031 769.92822266 C362.59905273 770.48429199 362.13853516 771.04036133 361.6640625 771.61328125 C361.26783691 772.09192627 360.87161133 772.57057129 360.46337891 773.0637207 C350.86115085 784.46194949 340.62696935 795.24739272 330.09057617 805.78222656 C328.42922292 807.44578808 326.7760931 809.11725104 325.12304688 810.7890625 C318.56838406 817.37765208 311.77882713 823.39355658 304.5 829.1875 C303.34768171 830.17063293 302.20191263 831.1615591 301.06640625 832.1640625 C294.28930582 838.14587401 287.28569336 843.75108613 280.0625 849.1875 C279.22211182 849.82252441 278.38172363 850.45754883 277.51586914 851.11181641 C276.70754639 851.71429199 275.89922363 852.31676758 275.06640625 852.9375 C274.35427979 853.46859375 273.64215332 853.9996875 272.90844727 854.546875 C269.86595712 856.61940757 266.7133646 858.39131534 263.5 860.1875 C232.45999503 841.85797986 232.45999503 841.85797986 221 834.6875 C212.39012855 829.30394209 203.6765429 824.1073905 194.9375 818.9375 C184.32210751 812.65634429 173.73114353 806.338478 163.1875 799.9375 C161.50901978 798.91994629 161.50901978 798.91994629 159.79663086 797.88183594 C158.73323486 797.23504883 157.66983887 796.58826172 156.57421875 795.921875 C155.55763184 795.30634766 154.54104492 794.69082031 153.49365234 794.05664062 C151.46041917 792.78715496 149.45566134 791.47113128 147.47900391 790.11523438 C146.52300293 789.46361328 145.56700195 788.81199219 144.58203125 788.140625 C143.74518799 787.54926758 142.90834473 786.95791016 142.04614258 786.34863281 C138.00529454 784.50586042 135.00594921 785.68896205 130.9387207 787.03540039 C130.10945068 787.36531982 129.28018066 787.69523926 128.42578125 788.03515625 C127.51119141 788.39287109 126.59660156 788.75058594 125.65429688 789.11914062 C124.71650391 789.49232422 123.77871094 789.86550781 122.8125 790.25 C120.93541301 790.99548261 119.05657573 791.73657745 117.17578125 792.47265625 C115.9369519 792.96584351 115.9369519 792.96584351 114.6730957 793.46899414 C112.5 794.1875 112.5 794.1875 109.5 794.1875 C109.38275385 795.0465626 109.2655077 795.90562519 109.14470863 796.79071999 C108.00369628 804.98461166 106.67315094 813.11846548 105.16162109 821.25146484 C104.82468483 823.08332588 104.82468483 823.08332588 104.48094177 824.95219421 C103.87359112 828.25122578 103.26379834 831.54978707 102.652843 834.84815168 C102.01153795 838.31372781 101.37345957 841.77989802 100.73501587 845.2460022 C99.52964152 851.78728054 98.32143176 858.32803171 97.11216223 864.86859095 C95.7338521 872.32422692 94.3587651 879.78045623 92.98392749 887.2367332 C90.15949774 902.55431109 87.33108965 917.87115154 84.5 933.1875 C82.93752928 933.50590198 81.3747166 933.8226261 79.81176758 934.13867188 C78.94151443 934.31523315 78.07126129 934.49179443 77.17463684 934.67370605 C22.60812176 945.15585624 -43.33983116 945.14217631 -97.5 931.1875 C-103.75461483 903.24701547 -109.85801799 875.27409717 -115.93017578 847.29345703 C-117.25740698 841.17805024 -118.58741909 835.06325152 -119.91801453 828.94857597 C-120.95052564 824.20160956 -121.98119077 819.45424378 -123.01132202 814.70676041 C-123.50186923 812.44748447 -123.99309523 810.1883558 -124.48501587 807.92937851 C-125.16383306 804.81124803 -125.8400666 801.69256835 -126.515625 798.57373047 C-126.71812363 797.64630035 -126.92062225 796.71887024 -127.1292572 795.76333618 C-127.4022036 794.49940033 -127.4022036 794.49940033 -127.68066406 793.20993042 C-127.83988342 792.47685102 -127.99910278 791.74377163 -128.16314697 790.98847771 C-128.5 789.1875 -128.5 789.1875 -128.5 787.1875 C-129.7375 786.81625 -130.975 786.445 -132.25 786.0625 C-137.4396149 784.37649199 -142.05198772 781.86226767 -146.80078125 779.19921875 C-149.36013499 777.9485119 -149.36013499 777.9485119 -151.52734375 778.6953125 C-154.18895146 780.70864744 -156.43171636 782.97392051 -158.75 785.375 C-161.71589217 788.43946951 -164.66735252 791.35925155 -167.921875 794.11328125 C-174.81485925 800.07321469 -181.09355285 806.71596558 -187.5 813.1875 C-190.14282415 815.85717432 -192.78911824 818.52334008 -195.4375 821.1875 C-196.32223999 822.0846875 -196.32223999 822.0846875 -197.22485352 823 C-200.21746707 826.00982937 -203.26721114 828.89225224 -206.47973633 831.66723633 C-210.46493719 835.11207097 -214.18803132 838.76361514 -217.88671875 842.51171875 C-218.55161819 843.18040482 -219.21651764 843.84909088 -219.90156555 844.53804016 C-221.99935735 846.64791489 -224.09383803 848.76102764 -226.1875 850.875 C-228.95931253 853.67349817 -231.73448585 856.46860086 -234.51171875 859.26171875 C-235.13890305 859.89720139 -235.76608734 860.53268402 -236.41227722 861.18742371 C-243.27928598 868.09259124 -243.27928598 868.09259124 -246.5 870.1875 C-249.64654851 870.0359665 -251.82832222 868.50914467 -254.40625 866.78125 C-255.14399658 866.28931152 -255.88174316 865.79737305 -256.6418457 865.29052734 C-257.42003662 864.76152832 -258.19822754 864.2325293 -259 863.6875 C-259.80590576 863.14432129 -260.61181152 862.60114258 -261.44213867 862.04150391 C-267.95646823 857.62141452 -274.26798219 852.99848078 -280.5 848.1875 C-281.5209375 847.42179688 -282.541875 846.65609375 -283.59375 845.8671875 C-295.9743376 836.55527639 -307.51574285 826.25678377 -318.85351562 815.71191406 C-320.75364124 813.95266371 -322.6659628 812.20709491 -324.578125 810.4609375 C-325.96900282 809.18256668 -327.35963063 807.9039238 -328.75 806.625 C-329.41902344 806.01664307 -330.08804688 805.40828613 -330.77734375 804.78149414 C-331.69966797 803.92865845 -331.69966797 803.92865845 -332.640625 803.05859375 C-333.19266602 802.55255615 -333.74470703 802.04651855 -334.31347656 801.52514648 C-335.5 800.1875 -335.5 800.1875 -335.5 798.1875 C-336.49 797.8575 -337.48 797.5275 -338.5 797.1875 C-339.8671875 795.83203125 -339.8671875 795.83203125 -341.375 794 C-344.22174437 790.63456916 -347.15946958 787.38786487 -350.17871094 784.1784668 C-356.24427814 777.72965491 -362.00665497 771.13609959 -367.5 764.1875 C-368.34600157 763.13383138 -369.19237197 762.08045883 -370.0390625 761.02734375 C-380.81748167 747.5444998 -390.76012099 733.43238765 -400.5 719.1875 C-396.65708282 710.58573719 -388.95703131 703.51511048 -382.5859375 696.66772461 C-379.61391882 693.45614384 -376.80100497 690.16198901 -374.0625 686.75 C-370.21954521 681.97208662 -366.13168671 677.49755016 -361.94384766 673.02587891 C-358.02093146 668.81320895 -354.38088976 664.42336445 -350.77734375 659.93359375 C-348.28173531 656.92430948 -345.66234857 654.04811346 -343 651.1875 C-339.52580757 647.45422745 -336.1993129 643.66378889 -333 639.6875 C-329.73647349 635.6329931 -326.34127872 631.75885392 -322.8125 627.9375 C-322.34827637 627.42791748 -321.88405273 626.91833496 -321.40576172 626.39331055 C-319.44964281 624.25321413 -317.48259534 622.17124081 -315.36328125 620.19140625 C-313.373166 618.38281506 -313.373166 618.38281506 -311.5 615.1875 C-311.72810546 611.85064294 -313.075344 609.1792776 -314.5 606.1875 C-315.40363553 604.06580606 -316.29925887 601.94068468 -317.1875 599.8125 C-317.62449219 598.81476562 -318.06148437 597.81703125 -318.51171875 596.7890625 C-319.5 594.1875 -319.5 594.1875 -319.5 591.1875 C-320.35593624 591.11710793 -320.35593624 591.11710793 -321.22916412 591.04529381 C-328.4034801 590.39763525 -335.44510485 589.25660436 -342.53710938 588.01025391 C-343.80332123 587.79059464 -345.06953308 587.57093536 -346.37411499 587.34461975 C-349.81636339 586.74703823 -353.25774471 586.14461055 -356.69885826 585.54053164 C-358.85065501 585.16285054 -361.00258701 584.78594898 -363.15455627 584.40925217 C-369.89449918 583.22909724 -376.63387042 582.04574842 -383.37248564 580.85803568 C-391.14157425 579.48876333 -398.91247908 578.13046532 -406.68509436 576.78135931 C-412.7064063 575.7355341 -418.72595186 574.67992743 -424.74424219 573.61685312 C-428.33468418 572.98286927 -431.92574956 572.35312514 -435.51872253 571.73363113 C-439.51440983 571.04439018 -443.50624748 570.33494733 -447.49804688 569.62353516 C-448.69074188 569.42082504 -449.88343689 569.21811493 -451.11227417 569.00926208 C-452.19441193 568.81305771 -453.27654968 568.61685333 -454.39147949 568.41470337 C-455.33531242 568.24915766 -456.27914536 568.08361195 -457.25157928 567.9130497 C-459.5 567.1875 -459.5 567.1875 -461.5 564.1875 C-462.58311667 559.59533382 -463.22672165 554.9130147 -463.9375 550.25 C-464.10032974 549.18486176 -464.10032974 549.18486176 -464.26644897 548.09820557 C-472.29407534 494.91084492 -476.6670016 432.32118965 -461.5 380.1875 C-433.56969961 375.24305891 -405.61107579 370.48120279 -377.6315918 365.82348633 C-372.16206949 364.91288872 -366.69318886 363.9984935 -361.22444439 363.08323765 C-356.96210051 362.37040416 -352.69938872 361.65979123 -348.43656349 360.94984245 C-346.4153763 360.6128926 -344.39431605 360.27518029 -342.37338829 359.93667793 C-339.58874183 359.47052674 -336.80360303 359.00743915 -334.01831055 358.54516602 C-333.19426727 358.40655151 -332.370224 358.26793701 -331.52120972 358.12512207 C-328.47799383 357.62263735 -325.59036201 357.1875 -322.5 357.1875 C-322.36859619 356.45829346 -322.23719238 355.72908691 -322.10180664 354.9777832 C-321.54075484 352.37646028 -320.8022648 350.03173501 -319.87109375 347.54296875 C-319.40219727 346.28129883 -319.40219727 346.28129883 -318.92382812 344.99414062 C-318.59833984 344.12982422 -318.27285156 343.26550781 -317.9375 342.375 C-317.60814453 341.49134766 -317.27878906 340.60769531 -316.93945312 339.69726562 C-316.12965399 337.52606505 -315.31641107 335.35622111 -314.5 333.1875 C-315.33402344 332.23230469 -316.16804687 331.27710938 -317.02734375 330.29296875 C-322.87213031 323.58357911 -328.65608526 316.84464017 -334.2578125 309.9296875 C-336.80253683 306.81749852 -339.39618225 303.75023503 -342 300.6875 C-346.12113948 295.83801278 -350.16991612 290.93588877 -354.1875 286 C-356.76146392 282.86950334 -359.37569086 279.77577539 -362 276.6875 C-366.12101634 271.83790619 -370.16991354 266.93589194 -374.1875 262 C-377.22004003 258.31177564 -380.31093999 254.67487146 -383.40307617 251.03662109 C-387.15530007 246.61409828 -390.83886507 242.13927628 -394.48046875 237.625 C-396.29157843 235.43905718 -398.18455867 233.38230408 -400.125 231.3125 C-402.5 228.1875 -402.5 228.1875 -402.42578125 225.92578125 C-401.20046669 222.3015386 -399.22571667 219.36595597 -397.0625 216.25 C-396.61438965 215.59249756 -396.1662793 214.93499512 -395.70458984 214.25756836 C-394.31388164 212.22647284 -392.9096905 210.2054578 -391.5 208.1875 C-390.87762451 207.29417969 -390.87762451 207.29417969 -390.24267578 206.3828125 C-387.37543841 202.28311523 -384.44948473 198.2283049 -381.5 194.1875 C-381.03867676 193.55199219 -380.57735352 192.91648438 -380.10205078 192.26171875 C-369.93470227 178.29667792 -358.71673453 165.40552487 -346.95849609 152.76367188 C-345.39608627 151.07520221 -343.8482033 149.37408546 -342.30078125 147.671875 C-333.47590708 138.01994764 -324.13070658 129.03033121 -314.5 120.1875 C-313.53835938 119.29933594 -312.57671875 118.41117187 -311.5859375 117.49609375 C-306.29579343 112.66778766 -300.84918914 108.05796782 -295.24902344 103.59326172 C-293.93873092 102.540126 -292.63590267 101.47769183 -291.33691406 100.41064453 C-288.94461725 98.44642731 -286.53620812 96.50343532 -284.125 94.5625 C-283.3515625 93.92159424 -282.578125 93.28068848 -281.78125 92.62036133 C-281.04132813 92.03150146 -280.30140625 91.4426416 -279.5390625 90.8359375 C-278.88115723 90.30145996 -278.22325195 89.76698242 -277.54541016 89.21630859 C-275.5 88.1875 -275.5 88.1875 -273.07641602 88.33227539 C-270.15293668 89.30270542 -267.84861766 90.58466488 -265.23828125 92.22265625 C-264.21500732 92.85905029 -263.1917334 93.49544434 -262.13745117 94.15112305 C-261.04021729 94.84375244 -259.9429834 95.53638184 -258.8125 96.25 C-257.65454969 96.97320841 -256.49609329 97.69560707 -255.3371582 98.41723633 C-252.926266 99.9192592 -250.5175966 101.42475674 -248.11035156 102.93261719 C-242.49077603 106.44810418 -236.83698846 109.90785528 -231.1875 113.375 C-222.60741476 118.65215747 -214.03700209 123.94466381 -205.47583008 129.25244141 C-200.68513834 132.22099927 -195.88864115 135.17981513 -191.0859375 138.12890625 C-189.98217773 138.80711426 -188.87841797 139.48532227 -187.74121094 140.18408203 C-185.51422367 141.55083328 -183.28572891 142.91513155 -181.05566406 144.27685547 C-175.92531539 147.41871474 -170.83733822 150.59739497 -165.8359375 153.94140625 C-164.9711377 154.5130249 -164.10633789 155.08464355 -163.21533203 155.67358398 C-161.61861969 156.73505457 -160.03274133 157.813082 -158.46044922 158.91040039 C-154.40041788 161.68523375 -154.40041788 161.68523375 -149.65625 161.78125 C-148.09390625 160.99234375 -148.09390625 160.99234375 -146.5 160.1875 C-144.79983245 159.45920275 -143.09635332 158.73861404 -141.390625 158.0234375 C-138.54048596 156.78424661 -135.69363766 155.53777036 -132.84765625 154.2890625 C-131.47673828 153.69351563 -131.47673828 153.69351563 -130.078125 153.0859375 C-128.83144043 152.53945557 -128.83144043 152.53945557 -127.55957031 151.98193359 C-125.5 151.1875 -125.5 151.1875 -123.5 151.1875 C-123.40607594 150.60677231 -123.31215187 150.02604462 -123.21538162 149.42771912 C-120.49013405 132.65295323 -117.45520334 115.94804433 -114.296875 99.25 C-113.80912764 96.66117404 -113.32160344 94.07230603 -112.83428955 91.48339844 C-111.6960342 85.43831269 -110.55526287 79.39370481 -109.41350675 73.3492794 C-108.11033083 66.44959729 -106.81008254 59.54936441 -105.5100379 52.64909172 C-102.84320302 38.49462786 -100.17282869 24.34083325 -97.5 10.1875 C-96.0680729 9.69931513 -94.63518688 9.21394238 -93.2019043 8.72975159 C-92.40407028 8.45915704 -91.60623627 8.18856249 -90.78422546 7.9097681 C-87.98005338 7.02309379 -85.2225177 6.50477114 -82.3125 6.08984375 C-81.21043213 5.92911377 -80.10836426 5.76838379 -78.97290039 5.6027832 C-77.82684326 5.44511475 -76.68078613 5.28744629 -75.5 5.125 C-74.30173584 4.95508545 -73.10347168 4.7851709 -71.86889648 4.61010742 C-68.4139743 4.12512845 -64.95748541 3.65380732 -61.5 3.1875 C-60.64680176 3.06987305 -59.79360352 2.95224609 -58.91455078 2.83105469 C-57.79862549 2.67878418 -57.79862549 2.67878418 -56.66015625 2.5234375 C-56.05051025 2.44013184 -55.44086426 2.35682617 -54.81274414 2.27099609 C-36.62036384 0.08009427 -18.29982661 -0.01250771 0 0 Z M-171.85400391 250.83398438 C-172.92692343 251.7162546 -174.0045314 252.59286328 -175.08740234 253.46289062 C-183.66606157 260.36398072 -191.51338689 267.99372803 -199.3125 275.75 C-199.80064178 276.23287476 -200.28878357 276.71574951 -200.79171753 277.21325684 C-207.49098396 283.85655624 -213.64634176 290.78588553 -219.5 298.1875 C-220.56481581 299.49242285 -221.6298901 300.79713486 -222.6953125 302.1015625 C-258.92588114 347.52042698 -276.56854033 403.62242756 -278.5 461.1875 C-278.53504639 462.23164062 -278.53504639 462.23164062 -278.57080078 463.296875 C-279.64739342 501.80089399 -273.05929119 540.51565748 -258.5 576.1875 C-258.05817383 577.28336426 -258.05817383 577.28336426 -257.60742188 578.40136719 C-246.69479472 605.14083913 -230.41601207 630.4608617 -210.80078125 651.67578125 C-208.89996897 653.75086155 -207.05384716 655.85512549 -205.21484375 657.984375 C-195.90322519 668.65095423 -185.69881443 678.52666051 -174.5 687.1875 C-173.41241892 688.06306651 -172.32657257 688.94079085 -171.2421875 689.8203125 C-133.15048879 720.5503846 -87.89276041 739.4775016 -39.5 746.1875 C-38.87128998 746.27470306 -38.24257996 746.36190613 -37.59481812 746.45175171 C-25.19560673 748.12288025 -12.93929317 748.5505232 -0.4375 748.5 C0.50365662 748.49817719 1.44481323 748.49635437 2.41448975 748.49447632 C17.31534772 748.44603441 31.79414995 747.76489238 46.5 745.1875 C47.4998291 745.02121094 48.4996582 744.85492187 49.52978516 744.68359375 C73.48561611 740.627739 96.5534519 733.63581804 118.5 723.1875 C119.34304688 722.78724609 120.18609375 722.38699219 121.0546875 721.97460938 C145.39707338 710.22885327 167.3838661 694.52791948 187.23828125 676.2578125 C190.39071852 673.3721618 193.63691175 670.59620015 196.8828125 667.81640625 C198.73484982 666.33350668 198.73484982 666.33350668 198.5 664.1875 C199.16 664.1875 199.82 664.1875 200.5 664.1875 C201.86902326 662.91231421 201.86902326 662.91231421 203.3125 661.125 C205.65313826 658.35702529 208.00680771 655.61011772 210.4296875 652.9140625 C218.54709685 643.82395183 225.71253426 634.30388137 232.5 624.1875 C232.91233887 623.57519531 233.32467773 622.96289062 233.74951172 622.33203125 C264.07065413 577.01911574 278.71138173 525.01164768 278.75 470.5625 C278.75067474 469.70267517 278.75134949 468.84285034 278.75204468 467.95697021 C278.70733401 431.90178265 272.12143113 396.61527221 258.5 363.1875 C258.07944336 362.14891846 258.07944336 362.14891846 257.65039062 361.08935547 C249.69947205 341.71667031 239.05780244 323.91159748 226.5 307.1875 C226.03207031 306.56262695 225.56414062 305.93775391 225.08203125 305.29394531 C219.48645595 297.87628141 213.56452725 290.87274833 207.203125 284.1015625 C205.13884034 281.87619204 203.15095886 279.62630687 201.17578125 277.32421875 C197.48651215 273.09191004 193.53496409 269.2095151 189.4375 265.375 C188.69435547 264.67922852 187.95121094 263.98345703 187.18554688 263.26660156 C180.58515227 257.15460228 173.74839948 251.50979173 166.5 246.1875 C165.83500488 245.69797852 165.17000977 245.20845703 164.48486328 244.70410156 C154.81546725 237.63308948 144.93928058 231.06556897 134.5 225.1875 C133.5109668 224.6291748 133.5109668 224.6291748 132.50195312 224.05957031 C102.96003707 207.54256958 69.27090018 196.40045017 35.5 193.1875 C34.65405273 193.10209961 33.80810547 193.01669922 32.93652344 192.92871094 C-40.76074105 186.27664468 -114.07906419 203.2961521 -171.85400391 250.83398438 Z " fill="#7C5A2D" transform="translate(497.5,23.8125)"/>
<path d="M0 0 C0.73089844 0.62132812 1.46179688 1.24265625 2.21484375 1.8828125 C15.51452537 13.47740673 28.41199072 26.04785542 38.796875 40.34814453 C40.02084766 42.02862323 41.27365188 43.68442414 42.53125 45.33984375 C49.29952651 54.37635829 54.79228002 63.9967922 60 74 C60.35304199 74.66805664 60.70608398 75.33611328 61.06982422 76.02441406 C77.66845842 107.7914507 84.45755103 143.56267633 84.3125 179.125 C84.31034485 180.07598572 84.3081897 181.02697144 84.30596924 182.0067749 C84.25555028 195.86790745 83.92079145 209.40062974 81 223 C80.79068848 223.99547852 80.58137695 224.99095703 80.36572266 226.01660156 C72.44047083 262.88893382 57.92145377 295.65428083 34 325 C33.51063965 325.60505371 33.0212793 326.21010742 32.51708984 326.83349609 C21.41550163 340.46722321 9.03597353 353.37554781 -5 364 C-5.53882813 364.41523926 -6.07765625 364.83047852 -6.6328125 365.25830078 C-34.00266884 386.29964493 -64.37622385 400.41086637 -98 408 C-98.92312988 408.21462891 -99.84625977 408.42925781 -100.79736328 408.65039062 C-131.76607258 415.53111249 -168.10262239 414.84612778 -199 408 C-199.96437988 407.79632812 -200.92875977 407.59265625 -201.92236328 407.3828125 C-239.1978597 399.31920987 -273.73166926 380.86835383 -301.73046875 355.0859375 C-303.8276005 353.15845324 -305.96376355 351.29238643 -308.125 349.4375 C-328.52440956 331.62393109 -344.45967163 308.86281449 -357 285 C-357.34272949 284.34870117 -357.68545898 283.69740234 -358.03857422 283.02636719 C-385.48247654 229.97779009 -388.20518268 163.4479215 -370.609375 106.94628906 C-356.3207777 63.15498575 -327.6881359 22.97408473 -291 -5 C-290.44231934 -5.42877441 -289.88463867 -5.85754883 -289.31005859 -6.29931641 C-280.25288893 -13.23175227 -270.91271811 -19.36753464 -261 -25 C-260.42378906 -25.33596191 -259.84757812 -25.67192383 -259.25390625 -26.01806641 C-240.79317207 -36.75019957 -220.71217783 -43.20247027 -200 -48 C-198.97350342 -48.25088379 -198.97350342 -48.25088379 -197.92626953 -48.50683594 C-130.24106846 -65.03275796 -52.22899746 -45.60357274 0 0 Z M-212 47 C-213.11632812 47.54527344 -214.23265625 48.09054687 -215.3828125 48.65234375 C-228.82197789 55.5338441 -240.19354674 64.55476523 -251 75 C-252.29550781 76.21816406 -252.29550781 76.21816406 -253.6171875 77.4609375 C-279.30642995 102.18983443 -294.20346808 136.9381848 -295.21875 172.48828125 C-295.46716556 186.27440399 -295.00531885 199.52620449 -292 213 C-291.84966309 213.71704102 -291.69932617 214.43408203 -291.54443359 215.17285156 C-287.40408125 234.35691404 -278.4410379 252.83352367 -266 268 C-265.50822266 268.60166992 -265.01644531 269.20333984 -264.50976562 269.82324219 C-243.77013117 294.97362701 -218.50424085 313.07927606 -187 322 C-185.93628174 322.31759277 -185.93628174 322.31759277 -184.85107422 322.64160156 C-161.98685399 329.2369492 -132.74108511 328.80824286 -110 322 C-109.15131348 321.75862305 -108.30262695 321.51724609 -107.42822266 321.26855469 C-83.69356092 314.41828928 -64.14086586 302.56019519 -46.47558594 285.42431641 C-45.11735712 284.11327953 -43.73547548 282.82686442 -42.3515625 281.54296875 C-24.52799429 264.59089993 -12.94414423 242.32439824 -6.25 218.875 C-6.05116211 218.1835791 -5.85232422 217.4921582 -5.64746094 216.77978516 C-2.38005908 204.72738774 -1.62473373 192.73059199 -1.6875 180.3125 C-1.68932281 179.5636554 -1.69114563 178.81481079 -1.69302368 178.04327393 C-1.85893077 137.54573269 -17.99836108 102.10523782 -46.45800781 73.49853516 C-50.39603479 69.67149121 -54.61163243 66.29127568 -59 63 C-59.78213867 62.39744385 -59.78213867 62.39744385 -60.58007812 61.78271484 C-69.50968428 54.92209949 -78.78202865 49.69622118 -89 45 C-89.98226562 44.52820313 -90.96453125 44.05640625 -91.9765625 43.5703125 C-128.59862267 26.96143451 -176.3664458 29.16374037 -212 47 Z " fill="#7C5A2D" transform="translate(646,314)"/>
</svg>
