<?xml version="1.0" encoding="UTF-8"?>
<!DOCTYPE svg PUBLIC "-//W3C//DTD SVG 1.1//EN" "http://www.w3.org/Graphics/SVG/1.1/DTD/svg11.dtd">
<svg xmlns="http://www.w3.org/2000/svg" version="1.1" width="1000px" height="1000px" style="shape-rendering:geometricPrecision; text-rendering:geometricPrecision; image-rendering:optimizeQuality; fill-rule:evenodd; clip-rule:evenodd" xmlns:xlink="http://www.w3.org/1999/xlink">
<g><path style="opacity:0.998" fill="#daa136" d="M 580.5,984.5 C 579.5,838.001 579.167,691.334 579.5,544.5C 622.513,506.657 666.013,469.324 710,432.5C 710.5,409.169 710.667,385.836 710.5,362.5C 651.755,376.853 593.089,391.52 534.5,406.5C 534.667,423.837 534.5,441.17 534,458.5C 519.667,476.833 505.333,495.167 491,513.5C 476.667,495.167 462.333,476.833 448,458.5C 447.5,441.17 447.333,423.837 447.5,406.5C 388.911,391.52 330.245,376.853 271.5,362.5C 271.167,385.843 271.5,409.176 272.5,432.5C 315.833,469.5 359.167,506.5 402.5,543.5C 403.833,690.833 403.833,838.167 402.5,985.5C 301.52,905.183 200.853,824.516 100.5,743.5C 182.116,611.023 216.283,467.023 203,311.5C 198.199,254.861 188.699,199.028 174.5,144C 174.85,142.743 175.517,142.409 176.5,143C 242.297,196.384 309.297,198.05 377.5,148C 404.799,125.036 428.966,99.2031 450,70.5C 464.414,50.0118 478.08,29.0118 491,7.5C 512.9,45.3016 538.233,80.6349 567,113.5C 589.149,137.996 614.982,157.496 644.5,172C 683.324,188.938 721.99,188.604 760.5,171C 777.086,163.131 792.586,153.631 807,142.5C 790.671,207.464 780.671,273.464 777,340.5C 769.865,486.133 804.698,620.633 881.5,744C 781.533,824.647 681.199,904.814 580.5,984.5 Z M 490.5,187.5 C 511.317,213.157 531.983,238.99 552.5,265C 532.131,296.902 511.631,328.735 491,360.5C 470.375,328.752 449.875,296.918 429.5,265C 450.048,239.291 470.381,213.458 490.5,187.5 Z"/></g>
<g><path style="opacity:0.247" fill="#dba234" d="M 579.5,544.5 C 579.167,691.334 579.5,838.001 580.5,984.5C 580.44,985.043 580.107,985.376 579.5,985.5C 578.167,838.334 578.167,691.334 579.5,544.5 Z"/></g>
</svg>
