<?xml version="1.0" encoding="UTF-8"?>
<!DOCTYPE svg PUBLIC "-//W3C//DTD SVG 1.1//EN" "http://www.w3.org/Graphics/SVG/1.1/DTD/svg11.dtd">
<svg xmlns="http://www.w3.org/2000/svg" version="1.1" width="1000px" height="1000px" style="shape-rendering:geometricPrecision; text-rendering:geometricPrecision; image-rendering:optimizeQuality; fill-rule:evenodd; clip-rule:evenodd" xmlns:xlink="http://www.w3.org/1999/xlink">
<g><path style="opacity:0.998" fill="#7c5a2d" d="M 405.5,162.5 C 408.563,160.949 411.229,158.782 413.5,156C 413.272,155.601 412.938,155.435 412.5,155.5C 413.167,154.167 414.167,153.167 415.5,152.5C 420.573,148.934 425.24,144.768 429.5,140C 429.272,139.601 428.938,139.435 428.5,139.5C 435.771,132.73 442.938,125.73 450,118.5C 460,107.167 470,95.8333 480,84.5C 488.419,71.328 497.085,58.328 506,45.5C 508.5,43 511,40.5 513.5,38C 515.579,37.1923 517.579,37.359 519.5,38.5C 530.157,85.5806 534.99,133.247 534,181.5C 533.351,200.769 528.351,218.769 519,235.5C 464.868,308.201 404.202,375.534 337,437.5C 324.395,451.384 317.228,467.717 315.5,486.5C 315.841,505.681 323.507,521.181 338.5,533C 366.072,552.775 396.739,565.441 430.5,571C 447.399,574.59 464.399,575.257 481.5,573C 502.68,569.154 515.18,556.654 519,535.5C 521.348,520.564 518.348,506.897 510,494.5C 502.782,487.808 494.282,483.641 484.5,482C 467.5,481.667 450.5,481.333 433.5,481C 416.729,479.242 409.229,470.075 411,453.5C 416.648,429.868 428.815,410.368 447.5,395C 467.591,378.707 490.425,368.207 516,363.5C 587.354,388.117 627.354,438.117 636,513.5C 643.038,560.727 628.538,599.893 592.5,631C 570.972,649.16 547.305,664.16 521.5,676C 447.057,697.062 376.057,688.729 308.5,651C 259.353,621.484 217.187,583.984 182,538.5C 159.751,501.974 160.085,465.641 183,429.5C 250.597,335.369 324.764,246.369 405.5,162.5 Z"/></g>
<g><path style="opacity:0.812" fill="#7a582a" d="M 428.5,139.5 C 428.938,139.435 429.272,139.601 429.5,140C 425.24,144.768 420.573,148.934 415.5,152.5C 419.5,147.833 423.833,143.5 428.5,139.5 Z"/></g>
<g><path style="opacity:0.812" fill="#7a582a" d="M 412.5,155.5 C 412.938,155.435 413.272,155.601 413.5,156C 411.229,158.782 408.563,160.949 405.5,162.5C 407.5,159.833 409.833,157.5 412.5,155.5 Z"/></g>
<g><path style="opacity:0.997" fill="#7c5a2d" d="M 681.5,591.5 C 686.239,588.269 690.572,584.436 694.5,580C 694.272,579.601 693.938,579.435 693.5,579.5C 708.764,563.799 717.431,544.965 719.5,523C 718.867,509.962 715.367,497.796 709,486.5C 669.759,440.267 632.426,392.6 597,343.5C 591.012,334.5 586.346,324.833 583,314.5C 576.428,295.078 582.928,287.912 602.5,293C 616.747,297.639 630.414,303.639 643.5,311C 721.159,355.627 789.659,411.794 849,479.5C 861.434,498.971 863.767,519.638 856,541.5C 853.135,549.562 849.469,557.229 845,564.5C 782.27,655.278 711.27,739.611 632,817.5C 612.463,839.397 596.463,863.73 584,890.5C 574.285,904.552 562.785,917.052 549.5,928C 537.146,936.763 523.812,938.763 509.5,934C 496.228,924.289 489.728,911.123 490,894.5C 484.565,851.428 492.565,811.094 514,773.5C 567.122,710.536 622.956,649.869 681.5,591.5 Z"/></g>
<g><path style="opacity:0.812" fill="#7a582a" d="M 693.5,579.5 C 693.938,579.435 694.272,579.601 694.5,580C 690.572,584.436 686.239,588.269 681.5,591.5C 685.167,587.167 689.167,583.167 693.5,579.5 Z"/></g>
</svg>
