<?xml version="1.0" encoding="UTF-8"?>
<!DOCTYPE svg PUBLIC "-//W3C//DTD SVG 1.1//EN" "http://www.w3.org/Graphics/SVG/1.1/DTD/svg11.dtd">
<svg xmlns="http://www.w3.org/2000/svg" version="1.1" width="1000px" height="1000px" style="shape-rendering:geometricPrecision; text-rendering:geometricPrecision; image-rendering:optimizeQuality; fill-rule:evenodd; clip-rule:evenodd" xmlns:xlink="http://www.w3.org/1999/xlink">
<g><path style="opacity:0.998" fill="#7c5a2d" d="M 508.5,49.5 C 644.817,45.4369 758.317,93.7702 849,194.5C 928.591,285.272 963.924,391.272 955,512.5C 948.131,585.802 922.797,651.802 879,710.5C 858.32,737.186 835.486,762.019 810.5,785C 808.631,786.602 806.631,787.602 804.5,788C 834.968,743.942 852.802,695.108 858,641.5C 866.086,545.178 844.086,456.511 792,375.5C 820.583,445.154 830.25,517.487 821,592.5C 808.077,685.854 767.577,764.687 699.5,829C 614.711,908.05 514.044,943.716 397.5,936C 306.692,929.739 227.692,896.406 160.5,836C 53.2889,735.617 11.1222,612.451 34,466.5C 34.2895,464.048 34.9562,461.715 36,459.5C 51.0291,527.416 83.5291,585.249 133.5,633C 206.878,703.025 294.545,734.692 396.5,728C 451.338,724.83 502.005,708.83 548.5,680C 584.263,648.662 609.097,610.162 623,564.5C 642.282,481.345 619.448,412.512 554.5,358C 509.368,324.264 458.701,311.097 402.5,318.5C 424.938,292.612 453.272,277.779 487.5,274C 501.141,272.882 514.807,272.216 528.5,272C 497.231,234.568 457.231,218.901 408.5,225C 361.536,233.396 328.036,259.229 308,302.5C 295.354,336.492 295.354,370.492 308,404.5C 336.205,460.525 381.705,486.359 444.5,482C 477.523,477.327 504.856,462.494 526.5,437.5C 533.496,443.492 537.329,451.159 538,460.5C 542.381,486.939 536.714,510.939 521,532.5C 501.86,555.329 478.36,572.162 450.5,583C 404.326,599.882 356.659,606.882 307.5,604C 225.675,596.193 163.508,557.36 121,487.5C 86.9351,424.046 78.6018,357.38 96,287.5C 109.822,241.983 133.655,202.817 167.5,170C 237.003,104.232 319.67,65.8984 415.5,55C 446.614,52.4766 477.614,50.6433 508.5,49.5 Z"/></g>
</svg>
