<?xml version="1.0" encoding="UTF-8"?>
<!DOCTYPE svg PUBLIC "-//W3C//DTD SVG 1.1//EN" "http://www.w3.org/Graphics/SVG/1.1/DTD/svg11.dtd">
<svg xmlns="http://www.w3.org/2000/svg" version="1.1" width="1000px" height="1000px" style="shape-rendering:geometricPrecision; text-rendering:geometricPrecision; image-rendering:optimizeQuality; fill-rule:evenodd; clip-rule:evenodd" xmlns:xlink="http://www.w3.org/1999/xlink">
<g><path style="opacity:0.999" fill="#7c5a2d" d="M 962.5,918.5 C 853.167,919.833 743.833,919.833 634.5,918.5C 707.936,864.489 756.436,793.155 780,704.5C 783.889,689.382 787.389,674.215 790.5,659C 723.903,566.063 642.237,489.397 545.5,429C 531.578,420.454 517.412,412.288 503,404.5C 387.933,467.394 292.433,552.394 216.5,659.5C 233.836,767.59 285.836,854.257 372.5,919.5C 262.828,920.165 153.495,919.498 44.5,917.5C 59.1136,902.024 75.7802,889.19 94.5,879C 122.966,864.066 152.632,852.066 183.5,843C 155.543,839.512 130.543,829.179 108.5,812C 90.3061,794.435 81.3061,772.935 81.5,747.5C 84.5866,640.902 104.42,537.569 141,437.5C 203.17,276.678 308.003,151.844 455.5,63C 471.371,53.8986 487.371,45.0652 503.5,36.5C 727.809,156.143 862.643,341.81 908,593.5C 917.308,645.442 923.142,697.775 925.5,750.5C 922.318,792.01 900.985,819.51 861.5,833C 849.083,837.271 836.416,840.604 823.5,843C 865.726,855.45 905.059,873.784 941.5,898C 945.833,901.667 950.167,905.333 954.5,909C 957.754,911.747 960.42,914.914 962.5,918.5 Z"/></g>
<g><path style="opacity:0.998" fill="#7c5a2d" d="M 502.5,532.5 C 534.148,564.312 568.482,592.812 605.5,618C 633.564,635.969 663.564,649.802 695.5,659.5C 661.079,767.744 597.079,853.744 503.5,917.5C 423.007,863.501 363.84,791.834 326,702.5C 320.672,688.682 315.838,674.682 311.5,660.5C 311.818,659.353 312.484,658.519 313.5,658C 347.673,648.078 379.34,633.078 408.5,613C 442.38,589.298 473.713,562.464 502.5,532.5 Z"/></g>
<g><path style="opacity:0.748" fill="#7b5a2c" d="M 44.5,917.5 C 153.495,919.498 262.828,920.165 372.5,919.5C 263.236,920.665 153.236,920.832 42.5,920C 43.0659,919.005 43.7326,918.172 44.5,917.5 Z"/></g>
<g><path style="opacity:0.749" fill="#7b5a2c" d="M 634.5,918.5 C 743.833,919.833 853.167,919.833 962.5,918.5C 963.289,918.783 963.956,919.283 964.5,920C 853.833,920.667 743.167,920.667 632.5,920C 633.044,919.283 633.711,918.783 634.5,918.5 Z"/></g>
</svg>
